<?xml version="1.0" encoding="UTF-8" standalone="no"?>
<!DOCTYPE svg PUBLIC "-//W3C//DTD SVG 1.1//EN" "http://www.w3.org/Graphics/SVG/1.1/DTD/svg11.dtd">
<svg width="100%" height="100%" viewBox="0 0 267 103" version="1.1" xmlns="http://www.w3.org/2000/svg" xmlns:xlink="http://www.w3.org/1999/xlink" xml:space="preserve" xmlns:serif="http://www.serif.com/" style="fill-rule:evenodd;clip-rule:evenodd;stroke-linejoin:round;stroke-miterlimit:2;">
    <g transform="matrix(1,0,0,1,-549.023,-30.7739)">
        <g>
            <g transform="matrix(1,0,0,1,-100.158,-29.4803)">
                <g transform="matrix(1,0,0,1,690.637,98.8172)">
                    <path d="M0,-38.563L-6.463,-38.559C-6.471,-29.196 -6.521,-19.766 -6.492,-10.402L10.053,0L10.102,-0.031L10.102,-30.401L10.087,-30.39L0,-38.563Z" style="fill:rgb(174,204,0);fill-rule:nonzero;"/>
                </g>
                <g transform="matrix(1,0,0,1,710.707,98.8172)">
                    <path d="M0,-38.563L6.462,-38.559C6.471,-29.196 6.521,-19.766 6.492,-10.402L-10.053,0L-10.103,-0.031L-10.103,-30.401L-10.088,-30.39L0,-38.563Z" style="fill:rgb(248,203,0);fill-rule:nonzero;"/>
                </g>
                <g transform="matrix(1,0,0,1,670.915,98.2125)">
                    <path d="M0,-29.823L4.572,-34.39C11.196,-27.773 17.901,-21.142 24.503,-14.502L20.16,4.553L20.103,4.567L-1.373,-16.909L-1.354,-16.911L-0.001,-29.823L0,-29.823Z" style="fill:rgb(12,206,0);fill-rule:nonzero;"/>
                </g>
                <g transform="matrix(1,0,0,1,656.723,105.711)">
                    <path d="M0,-23.13L-4.567,-18.558C2.05,-11.934 8.681,-5.228 15.321,1.373L34.376,-2.97L34.39,-3.027L12.914,-24.503L12.914,-24.484L0.002,-23.13L0,-23.13Z" style="fill:rgb(10,147,4);fill-rule:nonzero;"/>
                </g>
                <g transform="matrix(1,0,0,1,730.46,98.2115)">
                    <path d="M0,-29.822L-4.572,-34.389C-11.196,-27.772 -17.902,-21.141 -24.503,-14.501L-20.16,4.554L-20.103,4.567L1.373,-16.908L1.354,-16.91L0,-29.822Z" style="fill:rgb(255,145,0);fill-rule:nonzero;"/>
                </g>
                <g transform="matrix(1,0,0,1,744.651,105.711)">
                    <path d="M0,-23.13L4.567,-18.558C-2.05,-11.934 -8.681,-5.228 -15.321,1.373L-34.376,-2.97L-34.389,-3.027L-12.914,-24.503L-12.914,-24.484L-0.001,-23.13L0,-23.13Z" style="fill:rgb(255,115,0);fill-rule:nonzero;"/>
                </g>
                <g transform="matrix(1,0,0,1,752.158,105.288)">
                    <path d="M0,-3.581L0,-10.044C-9.363,-10.049 -18.793,-10.102 -28.156,-10.074L-38.56,6.471L-38.528,6.521L-8.157,6.521L-8.17,6.506L0.003,-3.581L0,-3.581Z" style="fill:rgb(212,85,0);fill-rule:nonzero;"/>
                </g>
                <g transform="matrix(1,0,0,1,752.158,118.196)">
                    <path d="M0,3.581L0,10.044C-9.363,10.049 -18.793,10.102 -28.156,10.074L-38.56,-6.471L-38.528,-6.521L-8.157,-6.521L-8.17,-6.506L0.003,3.581L0,3.581Z" style="fill:rgb(212,85,0);fill-rule:nonzero;"/>
                </g>
                <g transform="matrix(1,0,0,1,730.46,125.03)">
                    <path d="M0,29.822L-4.572,34.389C-11.196,27.772 -17.902,21.141 -24.503,14.501L-20.16,-4.554L-20.103,-4.567L1.373,16.908L1.354,16.91L0,29.822Z" style="fill:rgb(255,145,0);fill-rule:nonzero;"/>
                </g>
                <g transform="matrix(1,0,0,1,744.651,117.53)">
                    <path d="M0,23.131L4.567,18.558C-2.05,11.934 -8.681,5.229 -15.321,-1.372L-34.376,2.971L-34.389,3.028L-12.914,24.503L-12.914,24.485L-0.002,23.131L0,23.131Z" style="fill:rgb(255,115,0);fill-rule:nonzero;"/>
                </g>
                <g transform="matrix(1,0,0,1,710.703,124.666)">
                    <path d="M0,38.563L6.463,38.559C6.471,29.196 6.521,19.766 6.492,10.402L-10.053,0L-10.102,0.031L-10.102,30.401L-10.088,30.389L0,38.563Z" style="fill:rgb(248,203,0);fill-rule:nonzero;"/>
                </g>
                <g transform="matrix(1,0,0,1,690.633,124.666)">
                    <path d="M0,38.563L-6.463,38.559C-6.471,29.196 -6.521,19.766 -6.492,10.402L10.053,0L10.103,0.031L10.103,30.401L10.088,30.389L0,38.563Z" style="fill:rgb(174,204,0);fill-rule:nonzero;"/>
                </g>
                <g transform="matrix(1,0,0,1,656.723,117.53)">
                    <path d="M0,23.131L-4.567,18.558C2.05,11.934 8.681,5.229 15.321,-1.372L34.376,2.971L34.39,3.028L12.914,24.503L12.914,24.485L0.002,23.131L0,23.131Z" style="fill:rgb(10,147,4);fill-rule:nonzero;"/>
                </g>
                <g transform="matrix(1,0,0,1,670.915,125.03)">
                    <path d="M0,29.822L4.572,34.389C11.196,27.772 17.901,21.141 24.503,14.501L20.16,-4.554L20.103,-4.567L-1.373,16.908L-1.354,16.91L-0.001,29.822L0,29.822Z" style="fill:rgb(12,206,0);fill-rule:nonzero;"/>
                </g>
                <g transform="matrix(1,0,0,1,649.184,118.195)">
                    <path d="M0,3.581L0,10.043C9.363,10.048 18.793,10.102 28.156,10.074L38.56,-6.471L38.528,-6.521L8.158,-6.521L8.17,-6.506L-0.003,3.581L0,3.581Z" style="fill:rgb(11,51,10);fill-rule:nonzero;"/>
                </g>
                <g transform="matrix(1,0,0,1,649.184,105.287)">
                    <path d="M0,-3.581L0,-10.043C9.363,-10.049 18.793,-10.102 28.156,-10.074L38.56,6.471L38.528,6.521L8.158,6.521L8.17,6.506L-0.003,-3.581L0,-3.581Z" style="fill:rgb(11,51,10);fill-rule:nonzero;"/>
                </g>
                <g transform="matrix(1,0,0,1,717.179,94.0063)">
                    <path d="M0,-21.525C-3.757,-17.786 -7.513,-14.043 -11.236,-10.297L-8.89,0L0.006,-5.593C0.021,-10.891 0.014,-16.209 -0.002,-21.525L0,-21.525Z" style="fill:rgb(255,178,0);fill-rule:nonzero;"/>
                </g>
                <g transform="matrix(1,0,0,1,684.272,94.121)">
                    <path d="M0,-21.526C3.757,-17.786 7.512,-14.044 11.236,-10.297L8.89,0L-0.006,-5.594C-0.021,-10.892 -0.015,-16.209 0.002,-21.526L0,-21.526Z" style="fill:rgb(109,205,0);fill-rule:nonzero;"/>
                </g>
                <g transform="matrix(1,0,0,1,717.23,129.453)">
                    <path d="M0,21.525C-3.757,17.785 -7.512,14.043 -11.236,10.296L-8.89,0L0.006,5.593C0.021,10.891 0.014,16.208 -0.002,21.525L0,21.525Z" style="fill:rgb(255,178,0);fill-rule:nonzero;"/>
                </g>
                <g transform="matrix(1,0,0,1,684.322,129.339)">
                    <path d="M0,21.525C3.757,17.786 7.512,14.044 11.236,10.297L8.89,0L-0.006,5.593C-0.021,10.891 -0.015,16.209 0.002,21.525L0,21.525Z" style="fill:rgb(109,205,0);fill-rule:nonzero;"/>
                </g>
                <g transform="matrix(-0.974994,-0.222231,-0.222231,0.974994,732.149,95.6312)">
                    <path d="M1.122,11.841L11.683,11.841L8.043,1.459C2.882,0.266 -3.524,-1.233 -8.71,-2.402C-5.918,2.503 -1.476,7.735 1.122,11.841" style="fill:rgb(255,102,0);fill-rule:nonzero;"/>
                </g>
                <g transform="matrix(1,0,0,1,728.301,127.926)">
                    <path d="M0,-11.558L-10.298,-9.212L-4.442,0.103C0.856,0.119 7.435,0.157 12.751,0.144C8.939,-4.018 4.519,-8.289 1.073,-11.715L0,-11.558Z" style="fill:rgb(255,102,0);fill-rule:nonzero;"/>
                </g>
                <g transform="matrix(0.975019,-0.22212,-0.22212,-0.975019,674.172,106.481)">
                    <path d="M-1.332,-0.126L9.23,-0.126L5.589,10.257C0.428,11.449 -5.978,12.947 -11.165,14.116C-8.373,9.211 -3.93,3.98 -1.332,-0.126" style="fill:rgb(10,93,7);fill-rule:nonzero;"/>
                </g>
                <g transform="matrix(-0.531099,0.84731,0.84731,0.531099,668.457,134.095)">
                    <path d="M-20.914,4.446L-9.643,4.446C-6.815,-0.035 -0.432,-10.302 -0.432,-10.302L-16.941,-6.483L-20.914,4.446Z" style="fill:rgb(10,93,7);fill-rule:nonzero;"/>
                </g>
            </g>
            <g transform="matrix(1,0,0,1,32.6546,-139.843)">
                <text x="629.644px" y="203.912px" style="font-family:'Raleway-Bold', 'Raleway', sans-serif;font-weight:700;font-size:32px;fill:rgb(10,147,4);">E<tspan x="648.268px 669.868px 693.932px 718.22px 738.764px 760.524px " y="203.912px 203.912px 203.912px 203.912px 203.912px 203.912px ">CONAÇÚ</tspan></text>
            </g>
            <g transform="matrix(1,0,0,1,42.441,-138.331)">
                <text x="621.857px" y="224.476px" style="font-family:'Raleway-Light', 'Raleway', sans-serif;font-weight:300;font-size:12px;fill:rgb(118,118,117);">ENCONTRO NA<tspan x="709.228px " y="224.476px ">C</tspan>IONAL<tspan x="753.412px " y="224.476px "> </tspan>DE</text>
                <text x="621.857px" y="239.476px" style="font-family:'Raleway-Light', 'Raleway', sans-serif;font-weight:300;font-size:12px;fill:rgb(118,118,117);">E<tspan x="629.021px " y="239.476px ">C</tspan>ONOMIA<tspan x="685.697px " y="239.476px "> </tspan>DO <tspan x="709.048px 716.464px " y="239.476px 239.476px ">VA</tspan>LE DO</text>
                <text x="621.857px" y="254.476px" style="font-family:'Raleway-Light', 'Raleway', sans-serif;font-weight:300;font-size:12px;fill:rgb(118,118,117);">A<tspan x="629.645px " y="254.476px ">Ç</tspan>Ú</text>
            </g>
        </g>
    </g>
</svg>
