<svg width="55" height="49" viewBox="0 0 55 49" fill="none" xmlns="http://www.w3.org/2000/svg">
<path d="M10.19 2.75842L21.6263 22.2201C22.4533 23.6275 22.4533 25.3724 21.6263 26.7798L10.19 46.2415C9.60939 47.2296 8.54903 47.8363 7.40301 47.8363C4.91462 47.8363 3.35934 45.1426 4.60349 42.9876L13.6892 27.2499C14.6716 25.5482 14.6716 23.4517 13.6892 21.7501L4.60349 6.01236C3.35935 3.85731 4.91462 1.16357 7.40301 1.16357C8.54904 1.16357 9.60939 1.77036 10.19 2.75842Z" stroke="#8492A6"/>
<path d="M25.9171 2.75842L37.3533 22.2201C38.1803 23.6275 38.1803 25.3724 37.3533 26.7798L25.9171 46.2415C25.3364 47.2296 24.2761 47.8363 23.1301 47.8363C20.6417 47.8363 19.0864 45.1426 20.3305 42.9876L29.4162 27.2499C30.3986 25.5482 30.3986 23.4517 29.4162 21.7501L20.3305 6.01236C19.0864 3.85731 20.6417 1.16357 23.1301 1.16357C24.2761 1.16357 25.3364 1.77036 25.9171 2.75842Z" stroke="#8492A6"/>
<path d="M41.6439 2.75842L53.0801 22.2201C53.9071 23.6275 53.9071 25.3724 53.0801 26.7798L41.6439 46.2415C41.0632 47.2296 40.0029 47.8363 38.8569 47.8363C36.3685 47.8363 34.8132 45.1426 36.0573 42.9876L45.143 27.2499C46.1254 25.5482 46.1254 23.4517 45.143 21.7501L36.0573 6.01236C34.8132 3.85731 36.3685 1.16357 38.8569 1.16357C40.0029 1.16357 41.0633 1.77036 41.6439 2.75842Z" stroke="#8492A6"/>
</svg>
