<svg width="110" height="98" viewBox="0 0 110 98" fill="none" xmlns="http://www.w3.org/2000/svg">
<path d="M18.5136 2.73752L44.1054 46.7375C44.9189 48.1362 44.9189 49.8638 44.1054 51.2625L18.5136 95.2625C17.7079 96.6477 16.2263 97.5 14.6238 97.5L8.61577 97.5C5.16057 97.5 2.99441 93.7673 4.70867 90.7674L27.0164 51.7288C27.9826 50.0379 27.9826 47.9621 27.0164 46.2712L4.70867 7.23261C2.99442 4.23266 5.16057 0.499998 8.61577 0.499998L14.6238 0.499999C16.2263 0.499999 17.7079 1.35225 18.5136 2.73752Z" stroke="#EFF2F7"/>
<path d="M50.5134 2.73752L76.1052 46.7375C76.9186 48.1362 76.9186 49.8638 76.1052 51.2625L50.5134 95.2625C49.7077 96.6477 48.2261 97.5 46.6235 97.5L40.6155 97.5C37.1603 97.5 34.9942 93.7673 36.7084 90.7674L59.0161 51.7288C59.9824 50.0379 59.9824 47.9621 59.0161 46.2712L36.7084 7.23261C34.9942 4.23266 37.1603 0.499998 40.6155 0.499998L46.6235 0.499999C48.2261 0.499999 49.7077 1.35225 50.5134 2.73752Z" stroke="#EFF2F7"/>
<path d="M82.5124 2.73752L108.104 46.7375C108.918 48.1362 108.918 49.8638 108.104 51.2625L82.5124 95.2625C81.7067 96.6477 80.2251 97.5 78.6225 97.5L72.6146 97.5C69.1594 97.5 66.9932 93.7673 68.7074 90.7674L91.0152 51.7288C91.9814 50.0379 91.9814 47.9621 91.0152 46.2712L68.7075 7.23261C66.9932 4.23266 69.1594 0.499998 72.6146 0.499998L78.6225 0.499999C80.2251 0.499999 81.7067 1.35225 82.5124 2.73752Z" stroke="#EFF2F7"/>
</svg>
